<svg width="20" height="20" viewBox="0 0 20 20" fill="none" xmlns="http://www.w3.org/2000/svg">
<rect width="20" height="20" rx="10" fill="#1B1C1F"/>
<path d="M10.8623 7.1264L12.8743 9.13843" stroke="#4B4B4B" stroke-width="0.574854" stroke-linecap="round"/>
<path d="M7.12524 10.8629L9.13719 12.8749" stroke="#4B4B4B" stroke-width="0.574854" stroke-linecap="round"/>
<path d="M9.13719 7.1264L7.12524 9.13843" stroke="#4B4B4B" stroke-width="0.574854" stroke-linecap="round"/>
<path d="M12.8743 10.8629L10.8623 12.8749" stroke="#4B4B4B" stroke-width="0.574854" stroke-linecap="round"/>
<path d="M9.99966 7.41329C10.6346 7.41329 11.1493 6.89854 11.1493 6.26356C11.1493 5.62858 10.6346 5.11383 9.99966 5.11383C9.36471 5.11383 8.84998 5.62858 8.84998 6.26356C8.84998 6.89854 9.36471 7.41329 9.99966 7.41329Z" stroke="#4B4B4B" stroke-width="0.574854"/>
<path d="M9.99966 14.8861C10.6346 14.8861 11.1493 14.3714 11.1493 13.7364C11.1493 13.1014 10.6346 12.5867 9.99966 12.5867C9.36471 12.5867 8.84998 13.1014 8.84998 13.7364C8.84998 14.3714 9.36471 14.8861 9.99966 14.8861Z" stroke="#4B4B4B" stroke-width="0.574854"/>
<path d="M6.26333 11.1489C6.89828 11.1489 7.41302 10.6341 7.41302 9.99916C7.41302 9.36418 6.89828 8.84943 6.26333 8.84943C5.62838 8.84943 5.11365 9.36418 5.11365 9.99916C5.11365 10.6341 5.62838 11.1489 6.26333 11.1489Z" stroke="#4B4B4B" stroke-width="0.574854"/>
<path d="M13.7367 11.1489C14.3717 11.1489 14.8864 10.6341 14.8864 9.99916C14.8864 9.36418 14.3717 8.84943 13.7367 8.84943C13.1018 8.84943 12.587 9.36418 12.587 9.99916C12.587 10.6341 13.1018 11.1489 13.7367 11.1489Z" stroke="#4B4B4B" stroke-width="0.574854"/>
<path d="M6.26337 10.287C6.42211 10.287 6.55079 10.1583 6.55079 9.99959C6.55079 9.84085 6.42211 9.71216 6.26337 9.71216C6.10463 9.71216 5.97595 9.84085 5.97595 9.99959C5.97595 10.1583 6.10463 10.287 6.26337 10.287Z" stroke="#4B4B4B" stroke-width="0.574854"/>
<path d="M9.9997 14.0243C10.1584 14.0243 10.2871 13.8956 10.2871 13.7369C10.2871 13.5782 10.1584 13.4495 9.9997 13.4495C9.84096 13.4495 9.71228 13.5782 9.71228 13.7369C9.71228 13.8956 9.84096 14.0243 9.9997 14.0243Z" stroke="#4B4B4B" stroke-width="0.574854"/>
</svg>
